<svg version="1.2" xmlns="http://www.w3.org/2000/svg" viewBox="0 0 570 449" width="102" height="80">
	<title>christmas_2012_new_1771-ai</title>
	<defs>
		<radialGradient id="g1" cx="0" cy="0" r="1" gradientUnits="userSpaceOnUse" gradientTransform="matrix(814.261,0,0,814.261,-897.069,94.704)">
			<stop offset=".326" stop-color="#ffffff"/>
			<stop offset="1" stop-color="#000000"/>
		</radialGradient>
	</defs>
	<style>
		.s0 { fill: url(#g1) } 
		.s1 { fill: none;stroke: #000000;stroke-width: .4 } 
		.s2 { fill: #ffffff } 
		.s3 { fill: #fbfbfb } 
		.s4 { fill: #f7f7f8 } 
		.s5 { fill: #f2f3f3 } 
		.s6 { fill: #f1f1f2 } 
		.s7 { fill: #eeefef } 
		.s8 { fill: #ededee } 
		.s9 { fill: #e8e8e9 } 
		.s10 { fill: #e6e7e8 } 
		.s11 { fill: #e3e4e5 } 
		.s12 { fill: #dfe0e1 } 
		.s13 { fill: #dbdcdd } 
		.s14 { fill: #d9dbdc } 
		.s15 { fill: #d4d6d7 } 
		.s16 { fill: #d0d2d3 } 
		.s17 { fill: #cccecf } 
		.s18 { fill: #c8cacb } 
		.s19 { fill: #c4c5c7 } 
		.s20 { fill: #c0c1c3 } 
		.s21 { fill: #b9bbbd } 
		.s22 { fill: #b5b7b9 } 
		.s23 { fill: #aeb0b3 } 
		.s24 { fill: #a8abad } 
		.s25 { fill: #a2a4a7 } 
		.s26 { fill: #9a9c9f } 
		.s27 { fill: #929497 } 
		.s28 { fill: #898b8d } 
		.s29 { fill: #7e8081 } 
		.s30 { fill: #737477 } 
		.s31 { fill: #626366 } 
		.s32 { fill: #4d4d4f } 
		.s33 { fill: #231f20 } 
		.s34 { fill: #5a2d00 } 
		.s35 { fill: #e7991e } 
	</style>
	<g id="_Artboards_">
	</g>
	<g id="Guides For Artboard">
	</g>
	<g id="Layer 1">
		<path id="&lt;Path&gt;" class="s0" d="m-1411.7-322.3h1029.3v834h-1029.3z"/>
		<path id="&lt;Path&gt;" class="s1" d="m431.2 130.9c0 0 4.2 5 3.5 1.6-0.7-3.5-2.9 2-0.4 3.1 0.6 0.3 0.9 0.6 1.2 0.9"/>
		<g id="&lt;Group&gt;">
			<path id="&lt;Path&gt;" class="s2" d="m179.4 425.6c30.1 0 54.6-4.3 54.6-9.6 0-5.4-24.5-9.8-54.6-9.8-30.1 0-54.7 4.4-54.7 9.8 0 5.3 24.6 9.6 54.7 9.6z"/>
			<g id="&lt;Group&gt;">
				<path id="&lt;Path&gt;" class="s3" d="m179.4 406.5c29.3 0 53 4.2 53 9.4 0 5.1-23.7 9.4-53 9.4-29.3 0-53-4.3-53-9.4 0-5.2 23.7-9.4 53-9.4z"/>
				<path id="&lt;Path&gt;" class="s4" d="m179.4 406.7c28.4 0 51.4 4.1 51.4 9.1 0 5-23 9.2-51.4 9.2-28.4 0-51.4-4.2-51.4-9.2 0-5 23-9.1 51.4-9.1z"/>
				<path id="&lt;Path&gt;" class="s5" d="m179.4 407c27.5 0 49.8 4 49.8 8.8 0 4.9-22.3 8.8-49.8 8.8-27.5 0-49.8-3.9-49.8-8.8 0-4.8 22.3-8.8 49.8-8.8z"/>
				<path id="&lt;Path&gt;" class="s6" d="m179.4 407.3c26.6 0 48.1 3.8 48.1 8.5 0 4.7-21.5 8.5-48.1 8.5-26.6 0-48.1-3.8-48.1-8.5 0-4.7 21.5-8.5 48.1-8.5z"/>
				<path id="&lt;Path&gt;" class="s7" d="m179.4 407.5c25.7 0 46.5 3.7 46.5 8.3 0 4.5-20.8 8.2-46.5 8.2-25.7 0-46.6-3.7-46.6-8.2 0-4.6 20.9-8.3 46.6-8.3z"/>
				<path id="&lt;Path&gt;" class="s8" d="m179.4 407.8c24.8 0 44.9 3.6 44.9 8 0 4.4-20.1 7.9-44.9 7.9-24.8 0-44.9-3.5-44.9-7.9 0-4.4 20.1-8 44.9-8z"/>
				<path id="&lt;Path&gt;" class="s9" d="m179.4 408.1c23.9 0 43.3 3.4 43.3 7.7 0 4.2-19.4 7.7-43.3 7.7-23.9 0-43.3-3.5-43.3-7.7 0-4.3 19.4-7.7 43.3-7.7z"/>
				<path id="&lt;Path&gt;" class="s10" d="m179.4 408.3c23 0 41.7 3.4 41.7 7.4 0 4.1-18.7 7.5-41.7 7.5-23 0-41.7-3.4-41.7-7.5 0-4 18.7-7.4 41.7-7.4z"/>
				<path id="&lt;Path&gt;" class="s11" d="m179.4 408.7c22.1 0 40.1 3.1 40.1 7 0 4-18 7.1-40.1 7.1-22.1 0-40.1-3.1-40.1-7.1 0-3.9 18-7 40.1-7z"/>
				<path id="&lt;Path&gt;" class="s12" d="m179.4 408.9c21.2 0 38.4 3.1 38.4 6.8 0 3.8-17.2 6.8-38.4 6.8-21.2 0-38.5-3-38.5-6.8 0-3.7 17.3-6.8 38.5-6.8z"/>
				<path id="&lt;Path&gt;" class="s13" d="m179.4 409.2c20.3 0 36.8 3 36.8 6.5 0 3.6-16.5 6.6-36.8 6.6-20.3 0-36.8-3-36.8-6.6 0-3.5 16.5-6.5 36.8-6.5z"/>
				<path id="&lt;Path&gt;" class="s14" d="m179.4 409.5c19.4 0 35.2 2.8 35.2 6.2 0 3.5-15.8 6.3-35.2 6.3-19.5 0-35.2-2.8-35.2-6.3 0-3.4 15.7-6.2 35.2-6.2z"/>
				<path id="&lt;Path&gt;" class="s15" d="m179.4 409.8c18.5 0 33.6 2.6 33.6 5.9 0 3.3-15.1 6-33.6 6-18.5 0-33.6-2.7-33.6-6 0-3.3 15.1-5.9 33.6-5.9z"/>
				<path id="&lt;Path&gt;" class="s16" d="m179.4 410.1c17.6 0 32 2.5 32 5.6 0 3.1-14.4 5.7-32 5.7-17.7 0-32-2.6-32-5.7 0-3.1 14.3-5.6 32-5.6z"/>
				<path id="&lt;Path&gt;" class="s17" d="m179.4 410.3c16.7 0 30.3 2.4 30.3 5.4 0 3-13.6 5.3-30.3 5.3-16.8 0-30.4-2.3-30.4-5.3 0-3 13.6-5.4 30.4-5.4z"/>
				<path id="&lt;Path&gt;" class="s18" d="m179.4 410.6c15.9 0 28.7 2.3 28.7 5.1 0 2.8-12.8 5.1-28.7 5.1-15.9 0-28.7-2.3-28.7-5.1 0-2.8 12.8-5.1 28.7-5.1z"/>
				<path id="&lt;Path&gt;" class="s19" d="m179.4 410.8c15 0 27.1 2.3 27.1 4.9 0 2.6-12.1 4.8-27.1 4.8-15 0-27.1-2.2-27.1-4.8 0-2.6 12.1-4.9 27.1-4.9z"/>
				<path id="&lt;Path&gt;" class="s20" d="m179.4 411.2c14.1 0 25.5 2 25.5 4.5 0 2.5-11.4 4.5-25.5 4.5-14.1 0-25.5-2-25.5-4.5 0-2.5 11.4-4.5 25.5-4.5z"/>
				<path id="&lt;Path&gt;" class="s21" d="m179.4 411.5c13.2 0 23.9 1.8 23.9 4.2 0 2.3-10.7 4.2-23.9 4.2-13.2 0-23.9-1.9-23.9-4.2 0-2.4 10.7-4.2 23.9-4.2z"/>
				<path id="&lt;Path&gt;" class="s22" d="m179.4 411.7c12.2 0 22.2 1.8 22.2 4 0 2.1-10 4-22.2 4-12.3 0-22.2-1.9-22.2-4 0-2.2 9.9-4 22.2-4z"/>
				<path id="&lt;Path&gt;" class="s23" d="m179.4 412c11.4 0 20.6 1.7 20.6 3.7 0 2-9.2 3.6-20.6 3.6-11.4 0-20.7-1.6-20.7-3.6 0-2 9.3-3.7 20.7-3.7z"/>
				<path id="&lt;Path&gt;" class="s24" d="m179.4 412.3c10.5 0 19 1.5 19 3.4 0 1.8-8.5 3.3-19 3.3-10.5 0-19-1.5-19-3.3 0-1.9 8.5-3.4 19-3.4z"/>
				<path id="&lt;Path&gt;" class="s25" d="m179.4 412.6c9.6 0 17.4 1.4 17.4 3.1 0 1.6-7.8 3-17.4 3-9.6 0-17.4-1.4-17.4-3 0-1.7 7.8-3.1 17.4-3.1z"/>
				<path id="&lt;Path&gt;" class="s26" d="m179.4 412.9c8.7 0 15.7 1.3 15.7 2.8 0 1.5-7 2.8-15.7 2.8-8.7 0-15.8-1.3-15.8-2.8 0-1.5 7.1-2.8 15.8-2.8z"/>
				<path id="&lt;Path&gt;" class="s27" d="m179.4 413.2c7.8 0 14.1 1.1 14.1 2.5 0 1.3-6.3 2.5-14.1 2.5-7.8 0-14.2-1.2-14.2-2.5 0-1.4 6.4-2.5 14.2-2.5z"/>
				<path id="&lt;Path&gt;" class="s28" d="m179.4 413.5c6.9 0 12.5 1 12.5 2.2 0 1.2-5.6 2.2-12.5 2.2-7 0-12.5-1-12.5-2.2 0-1.2 5.5-2.2 12.5-2.2z"/>
				<path id="&lt;Path&gt;" class="s29" d="m179.4 413.8c6 0 10.9 0.8 10.9 1.9 0 1-4.9 1.9-10.9 1.9-6 0-10.9-0.9-10.9-1.9 0-1.1 4.9-1.9 10.9-1.9z"/>
				<path id="&lt;Path&gt;" class="s30" d="m179.4 414c5.1 0 9.3 0.8 9.3 1.7 0 0.9-4.2 1.6-9.3 1.6-5.2 0-9.3-0.7-9.3-1.6 0-0.9 4.1-1.7 9.3-1.7z"/>
				<path id="&lt;Path&gt;" class="s31" d="m179.4 414.3c4.2 0 7.7 0.6 7.7 1.4 0 0.7-3.5 1.3-7.7 1.3-4.2 0-7.7-0.6-7.7-1.3 0-0.8 3.5-1.4 7.7-1.4z"/>
				<path id="&lt;Path&gt;" class="s32" d="m179.4 414.5c3.3 0 6 0.5 6 1.2 0 0.5-2.7 1-6 1-3.4 0-6.1-0.5-6.1-1 0-0.7 2.7-1.2 6.1-1.2z"/>
			</g>
			<path id="&lt;Path&gt;" class="s33" d="m179.4 416.4c2.4 0 4.4-0.3 4.4-0.7 0-0.5-2-0.9-4.4-0.9-2.5 0-4.5 0.4-4.5 0.9 0 0.4 2 0.7 4.5 0.7z"/>
			<path id="&lt;Path&gt;" class="s2" d="m285.2 425.8c30.1 0 54.6-4.3 54.6-9.6 0-5.4-24.5-9.7-54.6-9.7-30.1 0-54.6 4.3-54.6 9.7 0 5.3 24.5 9.6 54.6 9.6z"/>
			<g id="&lt;Group&gt;">
				<path id="&lt;Path&gt;" class="s3" d="m285.2 406.7c29.2 0 53 4.3 53 9.5 0 5.1-23.8 9.3-53 9.3-29.3 0-53-4.2-53-9.3 0-5.2 23.7-9.5 53-9.5z"/>
				<path id="&lt;Path&gt;" class="s4" d="m285.2 407c28.4 0 51.4 4.1 51.4 9.1 0 5-23 9.1-51.4 9.1-28.4 0-51.4-4.1-51.4-9.1 0-5 23-9.1 51.4-9.1z"/>
				<path id="&lt;Path&gt;" class="s5" d="m285.2 407.3c27.5 0 49.7 3.9 49.7 8.8 0 4.9-22.2 8.7-49.7 8.7-27.5 0-49.8-3.8-49.8-8.7 0-4.9 22.3-8.8 49.8-8.8z"/>
				<path id="&lt;Path&gt;" class="s6" d="m285.2 407.5c26.6 0 48.1 3.8 48.1 8.5 0 4.8-21.5 8.6-48.1 8.6-26.6 0-48.2-3.8-48.2-8.6 0-4.7 21.6-8.5 48.2-8.5z"/>
				<path id="&lt;Path&gt;" class="s7" d="m285.2 407.8c25.7 0 46.6 3.7 46.6 8.2 0 4.6-20.9 8.3-46.6 8.3-25.7 0-46.5-3.7-46.5-8.3 0-4.5 20.8-8.2 46.5-8.2z"/>
				<path id="&lt;Path&gt;" class="s8" d="m285.2 408.1c24.7 0 44.9 3.5 44.9 7.9 0 4.4-20.2 8-44.9 8-24.8 0-44.9-3.6-44.9-8 0-4.4 20.1-7.9 44.9-7.9z"/>
				<path id="&lt;Path&gt;" class="s9" d="m285.2 408.3c23.9 0 43.2 3.5 43.2 7.7 0 4.3-19.3 7.7-43.2 7.7-23.9 0-43.3-3.4-43.3-7.7 0-4.2 19.4-7.7 43.3-7.7z"/>
				<path id="&lt;Path&gt;" class="s10" d="m285.2 408.7c23 0 41.7 3.2 41.7 7.3 0 4.1-18.7 7.4-41.7 7.4-23 0-41.7-3.3-41.7-7.4 0-4.1 18.7-7.3 41.7-7.3z"/>
				<path id="&lt;Path&gt;" class="s11" d="m285.2 408.9c22.1 0 40.1 3.2 40.1 7.1 0 3.9-18 7.1-40.1 7.1-22.2 0-40.1-3.2-40.1-7.1 0-3.9 17.9-7.1 40.1-7.1z"/>
				<path id="&lt;Path&gt;" class="s12" d="m285.2 409.2c21.2 0 38.4 3 38.4 6.8 0 3.8-17.2 6.8-38.4 6.8-21.3 0-38.5-3-38.5-6.8 0-3.8 17.2-6.8 38.5-6.8z"/>
				<path id="&lt;Path&gt;" class="s13" d="m285.2 409.5c20.3 0 36.8 2.9 36.8 6.5 0 3.6-16.5 6.5-36.8 6.5-20.4 0-36.9-2.9-36.9-6.5 0-3.6 16.5-6.5 36.9-6.5z"/>
				<path id="&lt;Path&gt;" class="s14" d="m285.2 409.7c19.4 0 35.2 2.8 35.2 6.3 0 3.4-15.8 6.2-35.2 6.2-19.5 0-35.2-2.8-35.2-6.2 0-3.5 15.7-6.3 35.2-6.3z"/>
				<path id="&lt;Path&gt;" class="s15" d="m285.2 410c18.5 0 33.5 2.7 33.5 6 0 3.3-15 5.9-33.5 5.9-18.5 0-33.6-2.6-33.6-5.9 0-3.3 15.1-6 33.6-6z"/>
				<path id="&lt;Path&gt;" class="s16" d="m285.2 410.3c17.6 0 32 2.5 32 5.7 0 3.1-14.4 5.7-32 5.7-17.7 0-32-2.6-32-5.7 0-3.2 14.3-5.7 32-5.7z"/>
				<path id="&lt;Path&gt;" class="s17" d="m285.2 410.6c16.7 0 30.3 2.4 30.3 5.4 0 2.9-13.6 5.3-30.3 5.3-16.8 0-30.4-2.4-30.4-5.3 0-3 13.6-5.4 30.4-5.4z"/>
				<path id="&lt;Path&gt;" class="s18" d="m285.2 410.8c15.8 0 28.7 2.4 28.7 5.2 0 2.8-12.9 5-28.7 5-15.9 0-28.7-2.2-28.7-5 0-2.8 12.8-5.2 28.7-5.2z"/>
				<path id="&lt;Path&gt;" class="s19" d="m285.2 411.2c15 0 27.1 2.1 27.1 4.8 0 2.6-12.1 4.8-27.1 4.8-15 0-27.1-2.2-27.1-4.8 0-2.7 12.1-4.8 27.1-4.8z"/>
				<path id="&lt;Path&gt;" class="s20" d="m285.2 411.5c14.1 0 25.5 2 25.5 4.5 0 2.5-11.4 4.5-25.5 4.5-14.1 0-25.5-2-25.5-4.5 0-2.5 11.4-4.5 25.5-4.5z"/>
				<path id="&lt;Path&gt;" class="s21" d="m285.2 411.7c13.2 0 23.8 1.9 23.8 4.3 0 2.3-10.6 4.2-23.8 4.2-13.2 0-23.9-1.9-23.9-4.2 0-2.4 10.7-4.3 23.9-4.3z"/>
				<path id="&lt;Path&gt;" class="s22" d="m285.2 412c12.3 0 22.2 1.8 22.2 4 0 2.1-9.9 3.9-22.2 3.9-12.3 0-22.2-1.8-22.2-3.9 0-2.2 9.9-4 22.2-4z"/>
				<path id="&lt;Path&gt;" class="s23" d="m285.2 412.3c11.4 0 20.6 1.6 20.6 3.7 0 2-9.2 3.6-20.6 3.6-11.4 0-20.7-1.6-20.7-3.6 0-2.1 9.3-3.7 20.7-3.7z"/>
				<path id="&lt;Path&gt;" class="s24" d="m285.2 412.5c10.5 0 19 1.6 19 3.5 0 1.8-8.5 3.3-19 3.3-10.5 0-19.1-1.5-19.1-3.3 0-1.9 8.6-3.5 19.1-3.5z"/>
				<path id="&lt;Path&gt;" class="s25" d="m285.2 412.8c9.6 0 17.4 1.4 17.4 3.1 0 1.8-7.8 3.1-17.4 3.1-9.6 0-17.4-1.3-17.4-3.1 0-1.7 7.8-3.1 17.4-3.1z"/>
				<path id="&lt;Path&gt;" class="s26" d="m285.2 413.2c8.7 0 15.7 1.1 15.7 2.7 0 1.6-7 2.8-15.7 2.8-8.7 0-15.8-1.2-15.8-2.8 0-1.6 7.1-2.7 15.8-2.7z"/>
				<path id="&lt;Path&gt;" class="s27" d="m285.2 413.4c7.8 0 14.1 1.1 14.1 2.5 0 1.4-6.3 2.5-14.1 2.5-7.8 0-14.2-1.1-14.2-2.5 0-1.4 6.4-2.5 14.2-2.5z"/>
				<path id="&lt;Path&gt;" class="s28" d="m285.2 413.7c6.9 0 12.5 1 12.5 2.2 0 1.3-5.6 2.2-12.5 2.2-7 0-12.6-0.9-12.6-2.2 0-1.2 5.6-2.2 12.6-2.2z"/>
				<path id="&lt;Path&gt;" class="s29" d="m285.2 414c6 0 10.9 0.8 10.9 1.9 0 1.1-4.9 1.9-10.9 1.9-6.1 0-10.9-0.8-10.9-1.9 0-1.1 4.8-1.9 10.9-1.9z"/>
				<path id="&lt;Path&gt;" class="s30" d="m285.2 414.3c5.1 0 9.3 0.7 9.3 1.6 0 0.9-4.2 1.7-9.3 1.7-5.2 0-9.3-0.8-9.3-1.7 0-0.9 4.1-1.6 9.3-1.6z"/>
				<path id="&lt;Path&gt;" class="s31" d="m285.2 414.5c4.2 0 7.7 0.7 7.7 1.4 0 0.8-3.5 1.4-7.7 1.4-4.3 0-7.7-0.6-7.7-1.4 0-0.7 3.4-1.4 7.7-1.4z"/>
				<path id="&lt;Path&gt;" class="s32" d="m285.2 414.8c3.3 0 6 0.5 6 1.1 0 0.6-2.7 1.1-6 1.1-3.4 0-6.1-0.5-6.1-1.1 0-0.6 2.7-1.1 6.1-1.1z"/>
			</g>
			<path id="&lt;Path&gt;" class="s33" d="m285.1 416.7c2.5 0 4.5-0.4 4.5-0.8 0-0.4-2-0.7-4.5-0.7-2.4 0-4.4 0.3-4.4 0.7 0 0.4 2 0.8 4.4 0.8z"/>
			<g id="&lt;Group&gt;">
				<path id="&lt;Compound Path&gt;" fill-rule="evenodd" class="s34" d="m287.8 97.1c0 22.7-13.7 42.2-33.3 50.7-23.8-10.8-46.3-20.4-67.6-20.1-5.9-8.7-9.3-19.3-9.3-30.6 0-30.4 24.6-55.1 55.1-55.1 30.5 0 55.1 24.7 55.1 55.1zm-72.5-17.5c-2.4 2.4-4.2 5.1-5.4 8h-0.1c-1.1 2.9-1.8 6.2-1.8 9.6 0 6.8 2.7 12.9 7.2 17.4 2.3 2.3 5 4.2 8.1 5.4 2.8 1.3 6 1.9 9.4 1.9 3.4 0 6.6-0.7 9.4-1.9 3-1.3 5.8-3.1 8.1-5.4l1.2-1.1c1.7-2 3.2-4.3 4.2-6.8 1.1-2.9 1.8-6.2 1.8-9.5 0-3.4-0.7-6.7-1.8-9.6-1.3-2.9-3.1-5.7-5.4-8-2.4-2.3-5.1-4.1-8.1-5.3-2.8-1.3-6-1.9-9.4-1.9-3.5 0-6.6 0.6-9.5 1.9-2.6 1-5 2.5-7 4.2z"/>
				<path id="&lt;Compound Path&gt;" class="s34" d="m359.3 51.9c12-11.2 36.3-4.8 54.5 14.4 14.1 15 20.3 33.2 16.8 45.9 1.6 4.6 4.1 9 7.6 12.9q4.9 6 10.5 11.9c-1.7 4.8-6.2 8.2-9.1 12.8-4.5-5-5.6-7.1-9.6-10.7-7.2-7.4-10.8-9.8-16-12.4-12.7 2-29.7-5.2-43.3-19.6-18.2-19.2-23.2-43.9-11.4-55.2zm101.1 96.5c25.9 23.9 57.1 45.7 68.3 62.8 8.7 13.6-2.2 34-14.1 26.3-10.1-6.4-35.7-42.3-59.6-71.1 1.6-6.1 3.5-12.2 5.4-18z"/>
				<path id="&lt;Compound Path&gt;" fill-rule="evenodd" class="s35" d="m141.5 316.2q-4.1-0.8-8-2.3c-2.6-0.9-5.2-2.1-7.7-3.5-2.4-1.4-4.8-3-7.1-4.7l-1.1-1-0.6-0.4v-0.1q-2.6-2.3-5-4.9c-1.8-2-3.4-4-4.7-6.1-1.6-2.2-3-4.7-4.2-7.2-1.1-2.4-2.1-5-2.7-7.5-22.1-81.9-26.2-154.8-99.7-168.5 25 0 60.7-3.1 82 13.5l1.1 0.9 0.6 0.5v0.1c1.8 1.5 3.5 3.2 5.1 5q2.6 2.8 4.7 5.9 2.4 3.4 4.1 7.2 1.7 3.7 2.8 7.6l11.4 42.2 13.1-19.2c62.8-92 139.7 17.5 229.3 12.6 43.8 3 87.8-31.6 114.9-60.6 11-10.7-6-21.3 3.4-31.2l8.8-8c13.8-12.9 44.8-43.7 60.2-42.1-0.4 0.9-0.9 1.7-1.6 2.3l-52.6 48.8q-1.2 1-1.6 1.9-0.4 0.9-0.3 1.6c0.1 0.5 0.3 1 0.6 1.4 0.2 0.3 0.7 0.6 1.1 0.8l0.1 0.1 22.7 14.5c0.7 0.4 1.3 0.7 2.1 0.9 0.7 0.1 1.4 0.2 2 0.2l0.6-0.1c0.8 0 1.7-0.2 2.4-0.5 0.7-0.3 1.3-0.6 1.7-1 14.4-13.1 27.2-25.3 37.8-40 0.4 18.8-16.4 36.2-29.8 48.6-11.4 10.5-30.2 2.9-42.3 13.3-87.9 116.6-128 91-218.1 61.9-72.4-25.3-208.9-27.4-124.1 83.2 9.1 11.9 22.8 21 47 31.5l7 3.1h-47.4q-4 0-8-0.7zm368-213.6c62.4-53.7 61.2-52.3 7.7 8.4-1.1 1-2.5 1.5-3.9 1.3-1.5-0.1-2.9-0.7-3.9-1.9-1.1-1.1-1.6-2.6-1.6-4 0-1.4 0.6-2.8 1.7-3.8zm-13.6-8.9c66.4-54.1 76.4-60.9 7.7 8.4-1.2 1.1-2.6 1.5-4 1.4-1.4-0.1-2.9-0.7-3.9-1.9-1.1-1.1-1.6-2.6-1.6-4h0.1c0-1.5 0.5-2.9 1.7-3.9z"/>
				<path id="&lt;Compound Path&gt;" fill-rule="evenodd" class="s35" d="m184.6 324.6c25.3 0 45.9 20.6 45.9 45.9 0 25.3-20.6 45.9-45.9 45.9-25.4 0-45.9-20.6-45.9-45.9 0-25.3 20.5-45.9 45.9-45.9zm13.7 30.4c-1.7-1.5-3.6-2.8-5.8-3.5-2.4-1.1-5-1.7-7.9-1.7-2.8 0-5.5 0.6-7.9 1.7-2.4 1-4.7 2.5-6.7 4.4-1.9 1.9-3.4 4.2-4.5 6.7-0.9 2.4-1.6 5.1-1.6 7.9 0 2.8 0.6 5.6 1.6 8 0.9 2 2.1 3.9 3.5 5.6l1 1c1.9 1.9 4.2 3.4 6.7 4.4 2.4 1.1 5.1 1.6 7.9 1.6 2.8 0 5.5-0.5 7.8-1.6 2.6-1 4.9-2.5 6.7-4.4 3.7-3.8 6.1-8.9 6.1-14.6 0-2.8-0.6-5.5-1.5-7.9h-0.1c-1-2.4-2.5-4.8-4.5-6.7z"/>
				<path id="&lt;Compound Path&gt;" fill-rule="evenodd" class="s34" d="m285 324.3c25.4 0 46 20.5 46 45.9 0 25.4-20.6 46-46 46-25.4 0-45.9-20.6-45.9-46 0-25.4 20.5-45.9 45.9-45.9zm13.7 30.4c-1.6-1.5-3.6-2.7-5.7-3.5-2.4-1-5.1-1.6-7.9-1.6-2.9 0-5.6 0.6-8 1.6-2.4 1-4.7 2.5-6.6 4.4h-0.1c-1.9 1.9-3.4 4.2-4.4 6.7-1 2.4-1.6 5.1-1.6 7.9 0 2.8 0.6 5.6 1.6 8q1.3 3.1 3.5 5.6l1 1c1.9 1.9 4.2 3.4 6.7 4.4 2.4 1.1 5 1.6 7.8 1.6 2.8 0 5.5-0.5 7.9-1.6 2.5-1 4.8-2.5 6.7-4.4 3.7-3.8 6.1-8.9 6.1-14.6 0-2.8-0.6-5.5-1.6-7.9-1-2.4-2.6-4.7-4.5-6.7z"/>
				<path id="&lt;Path&gt;" class="s35" d="m140.7 212.6l145.6 0.5c3.5 0 6.7 1.5 9 3.9 2.2 2.4 3.7 5.8 3.7 9.5 0 3.6-1.4 7-3.8 9.4-2.2 2.4-5.4 3.8-8.9 3.8l-145.7-0.5c-3.4 0-6.6-1.5-8.9-3.9-2.2-2.4-3.7-5.7-3.7-9.4v-0.1c0-3.6 1.5-6.9 3.7-9.3 2.3-2.4 5.4-3.9 8.9-3.9h0.1z"/>
				<path id="&lt;Path&gt;" class="s34" d="m163.3 249.8h130.3c3.7 0 6.9 1.5 9.2 3.9 2.4 2.4 3.9 5.8 3.9 9.5 0 3.6-1.5 7-3.9 9.3-2.3 2.4-5.5 4-9.2 4h-130.3c-3.5 0-6.8-1.6-9.1-4h-0.1c-2.3-2.3-3.8-5.7-3.8-9.3v-0.1c0-3.6 1.4-7 3.8-9.4 2.4-2.4 5.7-3.9 9.2-3.9z"/>
				<path id="&lt;Path&gt;" class="s34" d="m289.7 291c-29.5 0-40 0.5-59.7 0.5-18.6-0.1-37.2-0.1-52.3-0.2 28.9 32.9 69.6 25 112.1 25 35.1 0 46.1-26.5 54.4-52.5 2.8-9.1 7.5-23.1 9.5-30.5-30.6 5.2-37.5 57.7-64 57.7z"/>
				<path id="&lt;Path&gt;" class="s34" d="m187.2 71.5c0-2-28.4-44.4-28.4-44.4 0 0 132.3-15 132.3-13.5 0 1.5-14.3 34.4-14.3 34.4l32.8 11.5-3.3 8.8z"/>
				<path id="&lt;Path&gt;" class="s34" d="m228.8 125.9c19.9 0 36.1-13.9 36.1-30.8 0-16.9-16.2-30.8-36.1-30.8-20 0-36.2 13.9-36.2 30.8 0 16.9 16.2 30.8 36.2 30.8z"/>
			</g>
		</g>
	</g>
</svg>